<mxfile host="app.diagrams.net" modified="2021-04-11T17:35:06.051Z" agent="5.0 (X11; Linux x86_64) AppleWebKit/537.36 (KHTML, like Gecko) Chrome/86.0.4240.198 Safari/537.36" etag="WxVhbVCTZGPeaDcvm_aR" version="14.5.10" type="github">
  <diagram id="4JZzTnrjkIkujHieU-p1" name="Page-1">
    <mxGraphModel dx="338" dy="709" grid="1" gridSize="10" guides="1" tooltips="1" connect="1" arrows="1" fold="1" page="1" pageScale="1" pageWidth="827" pageHeight="1169" math="0" shadow="0">
      <root>
        <mxCell id="0" />
        <mxCell id="1" parent="0" />
        <mxCell id="-S8KnpT51XbW5vfzjbtg-12" value="" style="edgeStyle=orthogonalEdgeStyle;rounded=0;orthogonalLoop=1;jettySize=auto;html=1;fontSize=20;" edge="1" parent="1" source="-S8KnpT51XbW5vfzjbtg-1" target="-S8KnpT51XbW5vfzjbtg-2">
          <mxGeometry relative="1" as="geometry" />
        </mxCell>
        <mxCell id="-S8KnpT51XbW5vfzjbtg-1" value="&lt;font style=&quot;font-size: 20px&quot;&gt;START&lt;/font&gt;" style="ellipse;whiteSpace=wrap;html=1;" vertex="1" parent="1">
          <mxGeometry x="120" y="40" width="120" height="80" as="geometry" />
        </mxCell>
        <mxCell id="-S8KnpT51XbW5vfzjbtg-13" value="" style="edgeStyle=orthogonalEdgeStyle;rounded=0;orthogonalLoop=1;jettySize=auto;html=1;fontSize=20;" edge="1" parent="1" source="-S8KnpT51XbW5vfzjbtg-2" target="-S8KnpT51XbW5vfzjbtg-3">
          <mxGeometry relative="1" as="geometry" />
        </mxCell>
        <mxCell id="-S8KnpT51XbW5vfzjbtg-2" value="&lt;font style=&quot;font-size: 20px&quot;&gt;Load HL Pair with 2500h memory location&lt;/font&gt;" style="rounded=0;whiteSpace=wrap;html=1;" vertex="1" parent="1">
          <mxGeometry x="10" y="160" width="340" height="60" as="geometry" />
        </mxCell>
        <mxCell id="-S8KnpT51XbW5vfzjbtg-14" value="" style="edgeStyle=orthogonalEdgeStyle;rounded=0;orthogonalLoop=1;jettySize=auto;html=1;fontSize=20;" edge="1" parent="1" source="-S8KnpT51XbW5vfzjbtg-3" target="-S8KnpT51XbW5vfzjbtg-4">
          <mxGeometry relative="1" as="geometry" />
        </mxCell>
        <mxCell id="-S8KnpT51XbW5vfzjbtg-3" value="&lt;font style=&quot;font-size: 20px&quot;&gt;Load HL Pair with 3500h memory location&lt;/font&gt;" style="rounded=0;whiteSpace=wrap;html=1;" vertex="1" parent="1">
          <mxGeometry x="10" y="250" width="340" height="60" as="geometry" />
        </mxCell>
        <mxCell id="-S8KnpT51XbW5vfzjbtg-18" value="" style="edgeStyle=orthogonalEdgeStyle;rounded=0;orthogonalLoop=1;jettySize=auto;html=1;fontSize=20;entryX=0.5;entryY=0;entryDx=0;entryDy=0;" edge="1" parent="1" source="-S8KnpT51XbW5vfzjbtg-4" target="-S8KnpT51XbW5vfzjbtg-5">
          <mxGeometry relative="1" as="geometry" />
        </mxCell>
        <mxCell id="-S8KnpT51XbW5vfzjbtg-4" value="&lt;font style=&quot;font-size: 20px&quot;&gt;Move the value 06h to C register&lt;/font&gt;" style="rounded=0;whiteSpace=wrap;html=1;" vertex="1" parent="1">
          <mxGeometry x="10" y="340" width="340" height="60" as="geometry" />
        </mxCell>
        <mxCell id="-S8KnpT51XbW5vfzjbtg-20" value="" style="edgeStyle=orthogonalEdgeStyle;rounded=0;orthogonalLoop=1;jettySize=auto;html=1;fontSize=20;" edge="1" parent="1" source="-S8KnpT51XbW5vfzjbtg-5" target="-S8KnpT51XbW5vfzjbtg-6">
          <mxGeometry relative="1" as="geometry" />
        </mxCell>
        <mxCell id="-S8KnpT51XbW5vfzjbtg-5" value="&lt;font style=&quot;font-size: 20px&quot;&gt;Move the value 05h to L register&lt;/font&gt;" style="rounded=0;whiteSpace=wrap;html=1;" vertex="1" parent="1">
          <mxGeometry x="10" y="440" width="340" height="60" as="geometry" />
        </mxCell>
        <mxCell id="-S8KnpT51XbW5vfzjbtg-21" value="" style="edgeStyle=orthogonalEdgeStyle;rounded=0;orthogonalLoop=1;jettySize=auto;html=1;fontSize=20;" edge="1" parent="1" source="-S8KnpT51XbW5vfzjbtg-6" target="-S8KnpT51XbW5vfzjbtg-7">
          <mxGeometry relative="1" as="geometry" />
        </mxCell>
        <mxCell id="-S8KnpT51XbW5vfzjbtg-6" value="&lt;span style=&quot;font-size: 20px&quot;&gt;Move the value at memory address to accumulator&lt;/span&gt;" style="rounded=0;whiteSpace=wrap;html=1;" vertex="1" parent="1">
          <mxGeometry x="10" y="530" width="340" height="60" as="geometry" />
        </mxCell>
        <mxCell id="-S8KnpT51XbW5vfzjbtg-22" value="" style="edgeStyle=orthogonalEdgeStyle;rounded=0;orthogonalLoop=1;jettySize=auto;html=1;fontSize=20;" edge="1" parent="1" source="-S8KnpT51XbW5vfzjbtg-7" target="-S8KnpT51XbW5vfzjbtg-8">
          <mxGeometry relative="1" as="geometry" />
        </mxCell>
        <mxCell id="-S8KnpT51XbW5vfzjbtg-7" value="&lt;span style=&quot;font-size: 20px&quot;&gt;store the value at accumulator to location pointed by DL pair&lt;/span&gt;" style="rounded=0;whiteSpace=wrap;html=1;" vertex="1" parent="1">
          <mxGeometry x="10" y="610" width="340" height="60" as="geometry" />
        </mxCell>
        <mxCell id="-S8KnpT51XbW5vfzjbtg-23" value="" style="edgeStyle=orthogonalEdgeStyle;rounded=0;orthogonalLoop=1;jettySize=auto;html=1;fontSize=20;" edge="1" parent="1" source="-S8KnpT51XbW5vfzjbtg-8" target="-S8KnpT51XbW5vfzjbtg-9">
          <mxGeometry relative="1" as="geometry" />
        </mxCell>
        <mxCell id="-S8KnpT51XbW5vfzjbtg-8" value="&lt;span style=&quot;font-size: 20px&quot;&gt;point the destination pointer to the next address&lt;/span&gt;" style="rounded=0;whiteSpace=wrap;html=1;" vertex="1" parent="1">
          <mxGeometry x="10" y="700" width="340" height="60" as="geometry" />
        </mxCell>
        <mxCell id="-S8KnpT51XbW5vfzjbtg-24" value="" style="edgeStyle=orthogonalEdgeStyle;rounded=0;orthogonalLoop=1;jettySize=auto;html=1;fontSize=20;" edge="1" parent="1" source="-S8KnpT51XbW5vfzjbtg-9" target="-S8KnpT51XbW5vfzjbtg-10">
          <mxGeometry relative="1" as="geometry" />
        </mxCell>
        <mxCell id="-S8KnpT51XbW5vfzjbtg-9" value="&lt;span style=&quot;font-size: 20px&quot;&gt;point the source pointer to the previous address&lt;/span&gt;" style="rounded=0;whiteSpace=wrap;html=1;" vertex="1" parent="1">
          <mxGeometry x="10" y="790" width="340" height="60" as="geometry" />
        </mxCell>
        <mxCell id="-S8KnpT51XbW5vfzjbtg-25" value="" style="edgeStyle=orthogonalEdgeStyle;rounded=0;orthogonalLoop=1;jettySize=auto;html=1;fontSize=20;" edge="1" parent="1" source="-S8KnpT51XbW5vfzjbtg-10" target="-S8KnpT51XbW5vfzjbtg-11">
          <mxGeometry relative="1" as="geometry" />
        </mxCell>
        <mxCell id="-S8KnpT51XbW5vfzjbtg-10" value="&lt;span style=&quot;font-size: 20px&quot;&gt;decrement the value at C register&lt;/span&gt;" style="rounded=0;whiteSpace=wrap;html=1;" vertex="1" parent="1">
          <mxGeometry x="10" y="870" width="340" height="60" as="geometry" />
        </mxCell>
        <mxCell id="-S8KnpT51XbW5vfzjbtg-27" value="" style="edgeStyle=orthogonalEdgeStyle;rounded=0;orthogonalLoop=1;jettySize=auto;html=1;fontSize=20;" edge="1" parent="1" source="-S8KnpT51XbW5vfzjbtg-11" target="-S8KnpT51XbW5vfzjbtg-26">
          <mxGeometry relative="1" as="geometry" />
        </mxCell>
        <mxCell id="-S8KnpT51XbW5vfzjbtg-29" style="edgeStyle=orthogonalEdgeStyle;rounded=0;orthogonalLoop=1;jettySize=auto;html=1;entryX=1;entryY=0.5;entryDx=0;entryDy=0;fontSize=20;" edge="1" parent="1" source="-S8KnpT51XbW5vfzjbtg-11" target="-S8KnpT51XbW5vfzjbtg-6">
          <mxGeometry relative="1" as="geometry">
            <Array as="points">
              <mxPoint x="500" y="990" />
              <mxPoint x="500" y="560" />
            </Array>
          </mxGeometry>
        </mxCell>
        <mxCell id="-S8KnpT51XbW5vfzjbtg-11" value="&lt;span style=&quot;font-size: 20px&quot;&gt;is C register zero?&lt;/span&gt;" style="rounded=0;whiteSpace=wrap;html=1;" vertex="1" parent="1">
          <mxGeometry x="10" y="960" width="340" height="60" as="geometry" />
        </mxCell>
        <mxCell id="-S8KnpT51XbW5vfzjbtg-26" value="&lt;span style=&quot;font-size: 20px&quot;&gt;END&lt;/span&gt;" style="ellipse;whiteSpace=wrap;html=1;" vertex="1" parent="1">
          <mxGeometry x="120" y="1060" width="120" height="80" as="geometry" />
        </mxCell>
        <mxCell id="-S8KnpT51XbW5vfzjbtg-28" value="Yes&lt;br&gt;" style="text;html=1;align=center;verticalAlign=middle;resizable=0;points=[];autosize=1;strokeColor=none;fontSize=20;" vertex="1" parent="1">
          <mxGeometry x="185" y="1025" width="50" height="30" as="geometry" />
        </mxCell>
        <mxCell id="-S8KnpT51XbW5vfzjbtg-30" value="No" style="text;html=1;align=center;verticalAlign=middle;resizable=0;points=[];autosize=1;strokeColor=none;fontSize=20;" vertex="1" parent="1">
          <mxGeometry x="400" y="955" width="40" height="30" as="geometry" />
        </mxCell>
      </root>
    </mxGraphModel>
  </diagram>
</mxfile>
